# xmcd CD database file
#
# Track frame offsets:
#	150
#	24741
#	43492
#	61116
#	91818
#	109452
#	133743
#	151070
#
# Disc length: 2348 seconds
#
# Revision: 0
# Processed by: cddbd v1.5.2PL0 Copyright (c) Steve Scherf et al.
# Submitted via: CDex 1.51
#
DISCID=68092a08
DTITLE=HOBO BLUES BEND - Blues Az Esõben
DYEAR=1989
DGENRE=Blues
TTITLE0=45-ös Blues
TTITLE1=Hosszúlábú Asszony
TTITLE2=Operett
TTITLE3=Másik Magyarország
TTITLE4=Rohadt Rock And Roll
TTITLE5=3,20-as Blues
TTITLE6=Enyém, Tiéd, Miénk
TTITLE7=Közép-Európai Hobo Blues II.
EXTD=YEAR: 1989
EXTT0=
EXTT1=
EXTT2=
EXTT3=
EXTT4=
EXTT5=
EXTT6=
EXTT7=
PLAYORDER=
